# xmcd CD database file
# Copyright (C) 1997 Ti Kan
#
# Track frame offsets:
#  220
#  11195
#  23152
#  35630
#  42585
#  49655
#  54547
#  64200
#  72055
#  84225
#  96145
#  107520
#  116517
#  125152
#  135722
#  144797
#  155075
#  165675
#  174217
#
# Disc length: 2415 seconds
#
# Revision: 1
# Processed by: cddbd v1.4b41PL1 Copyright (c) Steve Scherf et al.
# Submitted via: CDWizzard Release:4.35
#
DISCID=03096d13
DTITLE=Gene Autry - Gene Autry Sings Gene Autry (Vol. 2)
DYEAR=1900
DGENRE=
TTITLE0=Twenty Twenty Vision
TTITLE1=Old November Moon
TTITLE2=When The Silvery Colorado Turns To Gold
TTITLE3=I'll Wait For You
TTITLE4=Texans Never Cry
TTITLE5=Yankee Doodle Dandy
TTITLE6=I Guess I've Been Asleep
TTITLE7=Kentucky Babe
TTITLE8=My Old Kentucky Home
TTITLE9=Home On The Range
TTITLE10=Red River Valley
TTITLE11=Battle Hymn Of The Republic
TTITLE12=Brahms' Lullaby
TTITLE13=America The Beautiful
TTITLE14=Jingle Bells 
TTITLE15=Here Comes Santa Claus
TTITLE16=Sleigh Bells 
TTITLE17=Nine Little Reindeers
TTITLE18=Silent Night
EXTD=
EXTT0=
EXTT1=
EXTT2=
EXTT3=
EXTT4=
EXTT5=
EXTT6=
EXTT7=
EXTT8=
EXTT9=
EXTT10=
EXTT11=
EXTT12=
EXTT13=
EXTT14=
EXTT15=
EXTT16=
EXTT17=
EXTT18=
PLAYORDER=
